<?xml version="1.0" standalone="no"?>
<!DOCTYPE svg PUBLIC "-//W3C//DTD SVG 20010904//EN"
 "http://www.w3.org/TR/2001/REC-SVG-20010904/DTD/svg10.dtd">
<svg version="1.0" xmlns="http://www.w3.org/2000/svg"
 width="2048.000000pt" height="1450.000000pt" viewBox="0 0 2048.000000 1450.000000"
 preserveAspectRatio="xMidYMid meet">

<g transform="translate(0.000000,1450.000000) scale(0.100000,-0.100000)"
fill="#000000" stroke="none">
<path d="M13250 12588 c0 -7 13 -78 29 -158 16 -80 27 -149 24 -153 -3 -5 -12
-5 -22 -1 -9 3 -35 12 -58 20 l-43 13 -67 -82 c-38 -45 -90 -111 -117 -147
-27 -36 -54 -71 -60 -78 -5 -8 37 19 94 58 149 103 135 100 226 49 l77 -44 20
-83 c10 -46 17 -86 14 -89 -3 -3 -62 14 -132 37 -69 23 -132 40 -139 37 -15
-6 -189 -237 -251 -332 -21 -33 -47 -73 -59 -90 l-20 -30 25 20 c13 11 26 23
29 26 3 4 56 50 119 103 76 64 123 96 139 96 29 0 114 -21 244 -61 l96 -29 19
-103 c12 -68 15 -103 8 -105 -6 -1 -64 15 -130 37 l-120 39 -34 -36 c-64 -70
-298 -399 -289 -407 2 -2 19 11 38 28 19 18 64 57 100 87 36 30 67 57 70 61 3
3 21 17 42 32 l36 28 84 -21 c124 -31 246 -69 252 -78 8 -14 38 -211 34 -231
-3 -17 -19 -10 -133 54 l-130 75 -23 -28 c-93 -111 -271 -359 -380 -529 -73
-113 -88 -144 -53 -106 61 65 470 392 491 393 3 0 66 -31 140 -68 l135 -68 18
-148 c11 -81 16 -150 13 -153 -3 -3 -43 18 -88 47 -46 29 -98 62 -117 73 l-33
20 -137 -139 c-140 -144 -269 -284 -356 -389 l-50 -59 100 75 c94 71 315 219
396 266 l36 21 97 -59 c54 -33 117 -72 141 -89 l43 -29 7 -111 c4 -61 5 -114
1 -117 -3 -3 -55 27 -116 66 -71 46 -116 69 -125 64 -29 -17 -261 -230 -379
-349 -173 -174 -173 -174 -31 -81 152 98 358 217 378 217 16 0 268 -156 280
-174 8 -11 -1 -297 -9 -305 -5 -5 -20 7 -149 117 -53 45 -100 82 -104 82 -4 0
-63 -51 -132 -114 -111 -101 -171 -162 -343 -343 l-49 -51 239 118 c132 66
251 122 265 125 22 5 46 -8 143 -81 64 -48 116 -94 116 -103 -1 -35 -37 -261
-43 -267 -4 -4 -15 -1 -26 7 -11 8 -58 42 -105 77 -48 34 -90 62 -95 62 -18 0
-288 -282 -406 -424 -56 -67 -51 -66 55 14 97 73 277 195 312 210 30 14 26 17
166 -111 l63 -58 -27 -103 c-14 -57 -30 -107 -34 -111 -4 -4 -33 20 -66 54
-145 152 -132 143 -162 123 -75 -48 -383 -298 -391 -316 -2 -5 28 6 65 25 38
19 111 51 161 72 l92 38 88 -81 c49 -44 100 -93 115 -109 l28 -29 -29 -69
c-73 -179 -186 -377 -295 -515 -101 -129 -279 -305 -296 -295 -4 3 -54 84
-110 180 -69 116 -108 174 -117 171 -7 -3 -46 -27 -85 -54 -98 -65 -259 -155
-377 -209 -53 -24 -105 -48 -116 -53 -57 -26 -235 -92 -345 -128 -391 -128
-776 -200 -1235 -232 -166 -12 -253 -9 -515 16 -724 71 -1392 288 -1885 613
-43 28 -81 51 -84 51 -3 0 -53 -81 -109 -180 -57 -99 -108 -183 -114 -186 -11
-7 -99 75 -151 140 -25 31 -28 41 -19 55 105 149 149 248 169 376 29 191 1
662 -47 811 l-20 59 6 -80 c3 -44 10 -123 15 -175 5 -52 12 -205 15 -340 7
-279 0 -329 -62 -451 -47 -95 -105 -180 -118 -176 -9 3 -72 87 -96 128 -7 12
-2 27 18 55 74 103 122 221 140 339 37 243 15 643 -59 1085 -28 168 -62 336
-70 350 -13 22 -1 -120 26 -310 57 -399 91 -790 80 -930 -8 -104 -36 -229 -71
-318 -30 -75 -94 -192 -106 -192 -10 0 -82 138 -127 245 -41 96 -90 241 -115
340 l-15 60 39 55 c124 170 157 243 170 369 10 91 -4 181 -40 265 l-17 41 -17
-39 c-17 -42 -59 -97 -141 -184 -68 -73 -102 -127 -116 -183 l-12 -47 -56 45
c-31 25 -111 72 -178 104 -84 39 -139 73 -173 105 l-50 47 0 -59 c1 -205 121
-399 300 -486 41 -20 92 -42 114 -50 44 -15 45 -16 113 -203 26 -71 82 -198
125 -282 43 -84 78 -155 78 -158 0 -10 -97 -4 -160 10 -36 9 -94 27 -129 41
-234 93 -442 346 -516 629 -46 173 -99 539 -125 850 -9 115 -28 261 -45 345
-9 50 -3 -213 10 -388 38 -502 111 -876 210 -1077 128 -261 377 -422 682 -442
l93 -6 57 -75 c93 -120 88 -112 73 -122 -23 -14 -158 -23 -250 -17 -186 14
-360 101 -533 266 -73 69 -103 114 -149 216 -56 125 -94 248 -169 545 -38 151
-78 295 -88 320 -11 25 -27 68 -36 95 -36 115 -46 94 -14 -30 29 -114 35 -144
64 -300 57 -305 120 -517 202 -685 50 -101 67 -126 143 -202 143 -142 278
-219 451 -254 66 -13 112 -16 219 -11 74 4 150 11 169 17 34 9 35 8 129 -81
52 -50 105 -95 118 -101 13 -6 24 -16 24 -21 0 -9 -44 -88 -112 -204 l-18 -31
52 -32 c29 -18 139 -97 243 -175 330 -246 644 -456 945 -630 119 -70 510 -273
550 -287 98 -34 -400 19 -695 73 -138 25 -407 89 -418 98 -4 4 4 78 18 164 14
86 25 162 25 169 0 10 -21 12 -89 10 -300 -12 -673 192 -1091 596 -74 72 -135
130 -136 129 -2 -3 -64 -410 -64 -418 0 -4 -76 -40 -170 -80 -93 -40 -170 -77
-170 -81 0 -4 33 -47 74 -95 114 -137 261 -256 392 -319 l72 -34 -54 -162
c-30 -90 -54 -164 -54 -165 0 -6 108 -57 213 -100 296 -122 643 -220 957 -272
224 -36 341 -45 605 -45 268 0 413 12 625 53 52 11 97 17 99 16 2 -2 -3 -43
-10 -90 -10 -73 -10 -88 2 -99 8 -8 81 -57 163 -110 116 -74 152 -93 166 -86
40 22 191 181 237 252 59 89 89 162 111 271 13 68 14 80 1 89 -11 8 -10 9 4 4
10 -3 61 -6 112 -6 l94 0 6 -47 c15 -112 57 -218 131 -329 36 -55 153 -177
210 -220 l34 -26 82 54 c46 30 120 78 166 107 49 32 82 60 82 69 0 10 -5 48
-10 85 -6 38 -8 72 -5 76 2 4 46 0 97 -10 567 -110 1199 -79 1795 90 235 67
503 171 503 195 0 6 -25 80 -55 164 -30 84 -55 159 -55 165 1 7 37 30 82 51
188 92 372 236 527 415 l53 61 -44 19 c-170 74 -303 133 -305 135 -1 1 -16 96
-34 211 -18 116 -33 211 -34 212 -1 2 -39 -34 -86 -80 -124 -121 -183 -174
-294 -263 -341 -275 -701 -439 -983 -449 -78 -3 -91 -7 -74 -27 17 -21 85
-269 76 -278 -22 -19 -561 -109 -809 -134 -82 -9 -169 -18 -192 -21 -24 -2
-43 -1 -43 4 0 4 46 29 103 55 410 189 1009 565 1502 941 44 34 106 77 138 96
31 18 57 38 57 43 0 5 -27 55 -60 112 -33 56 -60 107 -60 112 0 5 19 24 43 42
154 123 343 347 471 560 64 106 53 98 261 182 l100 40 22 -27 c13 -14 55 -81
95 -148 39 -67 82 -140 95 -162 l23 -40 -6 35 c-11 59 -112 453 -127 495 -14
39 -15 40 -59 38 -25 -2 -82 -11 -127 -22 -45 -10 -83 -16 -85 -12 -3 4 10 49
28 101 l33 95 154 52 c85 28 165 52 179 52 26 1 36 -15 205 -304 25 -44 44
-71 41 -60 -32 129 -95 355 -126 456 l-40 126 -52 -8 c-29 -5 -104 -18 -167
-30 -62 -11 -115 -18 -118 -15 -6 6 37 259 45 267 8 7 217 94 249 104 17 4 28
-1 45 -21 46 -53 388 -351 388 -337 0 9 -94 182 -187 343 -33 58 -74 133 -92
168 -24 48 -36 62 -54 62 -12 0 -89 -16 -171 -35 -82 -19 -151 -33 -154 -30
-3 2 1 60 7 127 9 93 16 126 29 137 9 7 73 40 142 73 69 32 133 63 142 68 10
6 23 10 29 10 11 0 101 -64 328 -234 63 -47 117 -84 119 -82 2 3 -37 58 -86
123 -49 65 -127 170 -174 233 -47 63 -101 132 -119 153 l-34 39 -75 -30 c-41
-16 -119 -48 -173 -72 -53 -24 -99 -41 -101 -39 -2 2 -6 69 -8 148 l-3 145 70
42 c38 23 100 57 137 75 64 31 71 32 106 20 62 -21 333 -157 390 -195 28 -19
52 -33 52 -31 0 4 -268 267 -401 393 l-76 72 -36 -15 c-20 -8 -86 -39 -147
-70 -74 -36 -112 -50 -115 -42 -2 7 -13 72 -23 145 -13 94 -16 135 -8 141 20
16 155 81 232 111 l76 30 56 -32 c106 -60 297 -181 357 -227 l60 -46 -45 54
c-69 83 -296 316 -382 392 l-77 68 -113 -39 c-62 -21 -135 -48 -161 -59 -35
-15 -49 -17 -52 -8 -2 6 -15 70 -28 141 l-24 128 31 19 c17 11 90 50 162 86
l132 66 142 -77 c78 -42 181 -102 229 -134 47 -31 90 -59 95 -61 12 -5 -222
229 -294 295 -30 27 -89 77 -130 109 -41 33 -77 62 -80 65 -33 33 -36 33 -162
-30 -68 -34 -127 -66 -132 -71 -18 -17 -46 -9 -51 14 -28 126 -33 153 -28 160
7 12 185 126 266 171 l68 38 62 -38 c103 -63 260 -169 352 -239 48 -36 90 -65
93 -65 4 0 3 4 -3 8 -5 4 -32 32 -59 62 -105 118 -432 441 -452 446 -21 5
-150 -43 -298 -111 -44 -20 -82 -32 -86 -28 -11 12 -49 186 -43 196 9 15 272
137 296 137 25 0 201 -58 332 -109 43 -17 73 -25 65 -18 -49 44 -210 173 -295
237 -55 40 -107 80 -116 87 -14 11 -38 3 -168 -62 -84 -41 -155 -75 -160 -75
-4 0 -19 51 -35 113 -29 123 -104 367 -111 367 -3 0 -5 -6 -5 -12z m-5236
-5005 c520 -343 1259 -566 2068 -623 412 -30 1065 66 1572 230 314 102 629
248 844 393 41 27 75 47 78 45 2 -3 83 -141 180 -308 l176 -304 -25 -20 c-87
-70 -474 -263 -717 -359 -667 -262 -1543 -411 -2170 -368 -829 56 -1582 264
-2220 614 -177 97 -211 120 -208 137 3 16 340 609 347 610 2 0 36 -21 75 -47z
m-935 -636 c292 -283 600 -483 853 -554 61 -17 94 -31 89 -36 -6 -6 -112 -7
-263 -4 -230 5 -407 22 -548 52 -25 5 -27 1 -73 -140 l-48 -145 -37 16 c-113
47 -236 138 -361 270 -56 58 -101 111 -101 117 0 7 68 41 151 77 83 36 154 70
159 75 6 9 60 331 60 364 0 6 3 11 7 11 3 0 54 -46 112 -103z m6505 -79 c16
-101 34 -188 40 -195 6 -6 76 -39 156 -73 80 -34 148 -66 153 -69 11 -11 -141
-169 -231 -242 -94 -76 -215 -155 -310 -203 -40 -20 -74 -36 -76 -36 -3 0 -26
65 -53 145 -37 113 -51 144 -63 140 -39 -12 -290 -45 -420 -56 -144 -11 -378
-6 -450 10 l-35 8 30 7 c271 62 434 129 655 273 156 102 396 299 520 427 24
25 47 46 50 46 4 0 19 -82 34 -182z m-6296 -537 c205 -104 623 -243 1026 -341
464 -112 912 -165 1503 -177 l292 -6 7 -63 c12 -113 13 -111 -176 -176 -165
-56 -544 -140 -785 -174 -140 -19 -558 -27 -705 -13 -343 33 -680 105 -1000
214 -232 80 -440 169 -440 189 0 16 191 586 196 586 2 0 39 -18 82 -39z m2157
-26 c259 -43 605 -75 805 -75 197 0 508 28 784 71 112 17 151 19 135 5 -2 -2
-67 -45 -144 -97 -183 -122 -372 -236 -515 -308 l-115 -59 -142 -1 -142 -2
-78 40 c-189 95 -629 369 -702 437 -7 7 22 4 114 -11z m3802 -155 c25 -69 71
-201 103 -293 l59 -168 -47 -21 c-125 -54 -365 -133 -537 -178 -502 -129
-1015 -161 -1485 -94 -158 23 -531 99 -650 133 -58 17 -149 47 -202 67 l-98
37 0 87 0 87 303 6 c596 13 960 56 1642 197 316 65 608 152 770 230 44 21 84
37 89 36 5 -1 29 -58 53 -126z m-2618 -747 c101 -67 226 -133 299 -159 28 -10
52 -21 52 -24 0 -3 -15 -14 -32 -25 -18 -10 -73 -45 -121 -77 -49 -32 -93 -58
-99 -58 -15 0 -155 138 -198 195 -56 75 -96 152 -119 229 -34 112 -31 114 57
41 42 -36 115 -91 161 -122z m-534 90 c-36 -123 -106 -231 -228 -352 -53 -52
-91 -82 -100 -78 -26 10 -237 150 -237 158 0 4 17 13 38 20 46 15 201 92 256
127 59 38 194 140 241 181 48 43 55 30 30 -56z"/>
<path d="M7978 7191 c-38 -71 -68 -134 -68 -140 0 -9 50 -41 64 -41 3 0 17 23
31 50 14 28 29 50 34 50 5 0 25 -7 45 -15 44 -19 80 -11 106 22 26 33 27 104
3 125 -20 18 -129 78 -141 78 -4 0 -37 -58 -74 -129z m152 24 c10 -12 9 -20
-4 -40 -17 -26 -32 -30 -54 -16 -12 7 -11 14 2 40 18 34 37 39 56 16z"/>
<path d="M12358 7254 c-16 -8 -28 -17 -28 -19 0 -5 121 -266 127 -274 4 -5
183 80 183 87 0 3 -20 44 -25 50 -1 1 -22 -9 -46 -23 -24 -13 -48 -25 -54 -25
-5 0 -34 50 -64 110 -29 61 -56 110 -60 110 -3 -1 -18 -8 -33 -16z"/>
<path d="M8265 7176 c-8 -18 -37 -82 -65 -141 -27 -60 -49 -109 -48 -110 10
-8 70 -36 73 -33 1 2 13 27 25 56 19 43 27 52 44 50 28 -4 32 -38 11 -90 -9
-22 -14 -42 -12 -44 1 -2 19 -10 39 -18 l35 -15 18 60 c15 48 16 65 7 79 -10
16 -8 21 16 32 46 22 63 82 34 125 -4 7 -43 28 -85 48 l-78 35 -14 -34z m113
-88 c3 -17 -23 -48 -41 -48 -32 1 -38 16 -22 54 15 36 17 37 38 23 12 -8 23
-21 25 -29z"/>
<path d="M12180 7172 c-19 -9 -36 -17 -38 -18 -3 -2 37 -316 41 -320 1 -1 19
5 39 13 34 13 36 17 31 48 -5 31 -3 33 33 45 35 12 39 11 56 -10 16 -20 21
-21 48 -10 17 7 33 16 36 21 5 8 -193 250 -205 248 -3 0 -22 -8 -41 -17z m75
-123 c28 -40 29 -42 10 -55 -28 -20 -32 -18 -40 24 -3 20 -9 48 -12 61 -8 32
7 22 42 -30z"/>
<path d="M8467 6958 c-31 -78 -55 -144 -53 -146 6 -6 189 -72 192 -70 1 2 5
15 9 29 6 25 3 28 -44 44 -60 20 -65 25 -50 59 14 30 14 30 70 11 34 -12 44
-13 51 -3 17 28 7 45 -33 58 -46 16 -55 29 -39 59 11 21 11 21 61 2 l50 -19
10 25 c5 14 8 28 5 30 -5 5 -158 63 -167 63 -4 0 -32 -64 -62 -142z"/>
<path d="M11941 7075 c-36 -14 -67 -27 -69 -30 -9 -9 101 -293 112 -290 6 3
23 9 38 14 l28 10 -21 56 c-12 31 -19 57 -17 58 1 1 21 11 42 22 47 24 68 65
55 109 -21 72 -73 88 -168 51z m83 -61 c12 -30 6 -53 -15 -59 -11 -4 -22 -5
-23 -3 -12 19 -25 61 -21 69 10 15 52 10 59 -7z"/>
<path d="M11780 7019 c-13 -6 -26 -12 -28 -14 -4 -3 86 -286 93 -293 2 -2 20
1 40 8 26 9 34 16 30 28 -45 144 -93 276 -101 278 -5 2 -20 -2 -34 -7z"/>
<path d="M8735 7008 c-49 -130 -92 -280 -82 -283 7 -3 24 -9 40 -14 27 -10 27
-10 44 49 18 65 22 67 84 48 44 -13 47 -11 51 21 3 20 -4 25 -45 38 -46 13
-48 16 -42 41 4 15 8 29 10 30 2 2 27 -3 56 -12 29 -8 54 -14 55 -13 1 1 5 14
9 28 6 25 4 27 -78 53 -98 30 -96 30 -102 14z"/>
<path d="M11603 6969 c-17 -5 -42 -22 -53 -37 -19 -23 -21 -35 -17 -88 11
-117 58 -194 117 -194 84 0 147 61 134 129 -6 30 -9 32 -38 25 -44 -9 -45 -11
-39 -47 7 -45 -18 -68 -46 -43 -21 19 -66 169 -57 192 8 22 44 17 57 -8 6 -13
13 -24 14 -26 1 -1 16 3 33 9 40 14 40 32 3 70 -31 30 -53 34 -108 18z"/>
<path d="M8946 6942 c-22 -72 -76 -272 -76 -280 0 -9 186 -59 193 -52 3 3 8
15 11 27 7 21 2 24 -54 40 -58 16 -61 18 -55 42 9 38 17 42 55 31 54 -15 67
-12 72 15 5 23 1 27 -41 39 -32 9 -47 19 -49 32 -5 38 10 44 66 30 52 -14 52
-14 58 10 4 14 4 28 0 31 -3 3 -44 16 -90 29 -78 20 -86 21 -90 6z"/>
<path d="M11413 6910 c-13 -5 -23 -11 -23 -14 0 -12 70 -290 74 -294 3 -2 21
1 40 8 32 10 35 14 29 38 -45 182 -72 267 -84 269 -8 1 -24 -2 -36 -7z"/>
<path d="M9141 6758 c-18 -79 -34 -147 -35 -152 -1 -11 62 -32 70 -23 11 11
73 292 66 298 -4 4 -21 10 -38 13 l-30 7 -33 -143z"/>
<path d="M11292 6883 c-23 -5 -23 0 -2 -93 4 -19 11 -48 14 -63 10 -45 -8 -24
-54 59 l-42 76 -41 -6 c-23 -4 -42 -8 -43 -9 -2 -1 1 -22 6 -47 5 -25 16 -83
25 -130 26 -142 21 -132 58 -125 18 4 33 8 34 9 2 2 -6 43 -16 92 -11 49 -17
91 -14 94 3 3 7 1 9 -5 3 -5 24 -44 47 -85 l43 -75 40 3 c21 2 42 6 46 10 5 6
-21 136 -57 280 -5 22 -10 23 -53 15z"/>
<path d="M9273 6864 c-10 -27 2 -49 30 -52 32 -4 32 2 3 -140 -17 -80 -20
-115 -12 -117 6 -2 23 -6 38 -9 32 -7 29 -14 56 139 l18 100 37 -3 c35 -3 37
-1 37 27 0 27 -4 31 -37 37 -21 3 -67 12 -101 18 -52 11 -65 11 -69 0z"/>
<path d="M11033 6833 c-28 -5 -28 -8 -6 -147 16 -106 16 -109 -3 -123 -32 -23
-49 11 -63 127 -16 131 -16 130 -54 123 -18 -3 -33 -7 -35 -8 -5 -4 19 -187
29 -226 14 -54 39 -72 100 -70 29 0 63 8 76 16 42 28 46 58 23 184 -11 64 -20
119 -20 124 0 7 -9 7 -47 0z"/>
<path d="M9506 6818 c-3 -7 -12 -64 -22 -126 -20 -131 -14 -155 41 -178 54
-22 112 -18 140 11 14 13 25 30 25 37 0 7 7 62 15 122 8 60 12 113 9 117 -3 5
-20 9 -38 9 l-33 0 -13 -107 c-15 -130 -23 -153 -50 -153 -31 0 -34 21 -15
147 13 95 14 117 3 124 -20 13 -58 11 -62 -3z"/>
<path d="M9747 6647 c-9 -83 -15 -153 -13 -155 2 -1 19 -5 39 -9 l35 -5 7 66
c6 52 11 66 24 66 31 0 40 -16 43 -75 l3 -60 40 -3 40 -3 -3 63 c-2 36 -10 70
-18 79 -12 14 -12 18 6 34 27 24 27 88 0 115 -22 22 -40 27 -126 33 l-61 5
-16 -151z m131 84 c8 -5 12 -21 10 -37 -2 -23 -9 -30 -30 -32 -27 -3 -28 -1
-28 37 0 42 16 53 48 32z"/>
<path d="M10733 6793 c-20 -4 -22 -12 -29 -94 -3 -49 -10 -91 -14 -94 -4 -3
-18 36 -31 86 l-23 90 -55 -3 -56 -3 2 -80 c2 -44 5 -113 9 -152 l6 -73 33 0
34 0 -5 108 -4 107 30 -95 c17 -52 33 -100 35 -106 2 -6 17 -9 33 -6 34 5 36
11 48 141 8 90 19 75 29 -41 l7 -88 40 0 c38 0 39 1 34 28 -3 15 -10 74 -16
132 -16 153 -15 150 -53 149 -17 -1 -42 -4 -54 -6z"/>
<path d="M10035 6625 c-25 -80 -44 -149 -41 -153 2 -4 20 -9 39 -10 31 -2 35
0 41 28 5 30 8 31 48 28 39 -3 43 -6 46 -30 3 -25 7 -28 43 -28 21 0 39 5 39
10 0 6 -16 76 -36 155 l-36 145 -48 0 -48 0 -47 -145z m108 3 c6 -46 6 -48
-18 -48 -29 0 -29 1 -14 71 13 59 23 51 32 -23z"/>
<path d="M7215 6035 c-33 -32 -31 -47 6 -90 19 -21 29 -41 25 -51 -7 -19 -41
-14 -41 6 0 8 -4 18 -10 22 -20 15 -35 8 -35 -17 0 -49 97 -80 126 -40 22 30
16 62 -17 99 -30 35 -32 56 -3 56 8 0 14 -7 14 -15 0 -19 36 -39 45 -25 12 20
-8 52 -41 66 -43 18 -41 18 -69 -11z"/>
<path d="M7350 6000 c0 -11 7 -20 15 -20 21 0 19 -19 -10 -96 -14 -37 -24 -68
-23 -69 2 -2 13 -5 25 -9 19 -6 23 0 45 66 22 64 28 73 49 73 17 0 24 6 24 19
0 14 -14 24 -55 37 -69 23 -70 23 -70 -1z"/>
<path d="M7466 5917 c-27 -20 -11 -40 25 -32 22 5 29 3 29 -9 0 -12 -10 -16
-40 -16 -34 0 -42 -4 -52 -26 -8 -17 -9 -31 -2 -41 13 -21 104 -45 109 -29 2
6 8 26 14 45 15 45 14 86 -2 99 -23 19 -61 23 -81 9z m34 -108 c-12 -21 -30
-17 -30 6 0 14 20 25 33 18 4 -2 2 -13 -3 -24z"/>
<path d="M7732 5817 c-28 -108 -28 -119 0 -115 15 2 25 13 32 36 8 30 29 42
40 23 3 -4 1 -22 -4 -40 -7 -26 -5 -33 10 -41 20 -11 47 -14 38 -4 -4 3 -2 19
3 36 4 17 5 38 0 46 -5 10 -2 21 11 34 26 26 20 69 -12 85 -14 6 -41 14 -60
18 l-36 6 -22 -84z m98 23 c0 -31 -31 -54 -43 -32 -10 15 12 52 28 46 8 -3 15
-10 15 -14z"/>
<path d="M7916 5828 c-8 -12 -21 -45 -27 -74 -10 -45 -10 -57 4 -78 19 -29 67
-42 97 -26 45 24 68 150 34 184 -24 24 -90 21 -108 -6z m76 -25 c4 -18 -14
-102 -26 -122 -10 -15 -36 -2 -36 18 0 10 7 41 15 69 16 52 40 69 47 35z"/>
<path d="M8086 5804 c-28 -28 -20 -70 19 -100 19 -14 35 -33 35 -41 0 -18 -32
-31 -38 -15 -5 16 -31 42 -42 42 -4 0 -10 -9 -13 -21 -14 -53 94 -84 127 -37
25 36 19 63 -21 95 -25 21 -34 35 -30 46 9 23 28 21 34 -3 6 -21 37 -27 48
-10 3 5 -5 21 -19 35 -29 29 -76 33 -100 9z"/>
<path d="M7570 5781 c0 -5 -3 -16 -6 -24 -3 -9 3 -16 16 -20 26 -7 50 30 29
44 -18 11 -39 11 -39 0z"/>
<path d="M8235 5700 c-37 -73 -44 -95 -33 -101 21 -14 37 -10 47 10 13 24 61
17 61 -9 0 -15 38 -36 47 -26 3 3 -16 198 -20 202 -1 1 -14 5 -29 9 -26 7 -29
3 -73 -85z m68 -7 c6 -28 4 -33 -13 -33 -23 0 -23 -2 -9 39 13 37 14 37 22 -6z"/>
<path d="M8487 5743 c-3 -10 -11 -53 -18 -96 -14 -92 -11 -97 63 -97 58 0 77
22 85 103 5 47 2 58 -16 76 -12 12 -34 21 -50 21 -16 0 -36 3 -44 6 -9 3 -17
-2 -20 -13z m67 -29 c33 -13 11 -129 -24 -129 -9 0 -14 8 -14 20 3 40 15 115
19 115 2 0 10 -3 19 -6z"/>
<path d="M9516 5744 c-4 -9 -4 -19 -1 -23 8 -7 38 12 43 27 6 19 -35 14 -42
-4z"/>
<path d="M8684 5730 c-27 -11 -44 -59 -44 -126 0 -50 2 -55 31 -69 70 -37 119
10 119 112 0 54 -5 65 -37 82 -25 13 -40 13 -69 1z m56 -74 c0 -56 -15 -96
-35 -96 -11 0 -15 11 -15 39 0 67 11 101 31 101 16 0 19 -8 19 -44z"/>
<path d="M8906 5701 c-2 -9 -7 -55 -11 -103 l-7 -88 26 0 c21 0 26 5 26 24 0
41 11 56 40 56 38 0 60 24 60 65 0 40 -14 50 -82 57 -38 4 -48 2 -52 -11z m82
-45 c4 -17 -12 -35 -30 -36 -5 0 -8 14 -8 31 0 24 4 30 17 27 10 -2 19 -12 21
-22z"/>
<path d="M9075 5698 c-2 -7 -6 -55 -8 -105 -4 -91 -4 -93 18 -93 29 0 35 22
35 128 0 76 -2 82 -20 82 -11 0 -22 -6 -25 -12z"/>
<path d="M9507 5704 c-4 -4 -7 -52 -7 -106 l0 -98 25 0 26 0 -3 102 c-2 83 -6
103 -18 106 -9 1 -19 0 -23 -4z"/>
<path d="M9167 5607 c-15 -50 -28 -95 -27 -99 0 -5 11 -8 24 -8 15 0 26 7 29
20 3 14 14 20 31 20 19 0 26 -5 26 -20 0 -15 7 -20 29 -20 l29 0 -14 63 c-33
139 -32 137 -67 137 -32 0 -32 -1 -60 -93z m72 -14 c1 -14 -5 -23 -14 -23 -16
0 -19 20 -8 59 6 23 7 23 14 5 4 -10 8 -29 8 -41z"/>
<path d="M9327 5663 c-9 -51 -8 -125 1 -139 11 -16 48 -34 72 -34 11 0 32 11
45 25 22 22 25 32 25 105 0 78 -1 80 -25 80 -24 0 -24 -2 -27 -82 -3 -75 -5
-83 -22 -83 -18 0 -20 8 -20 80 -1 74 -3 80 -22 83 -18 3 -22 -4 -27 -35z"/>
<path d="M12635 5822 c-31 -6 -45 -22 -45 -52 0 -23 4 -27 20 -23 11 3 20 14
20 24 0 11 6 19 14 19 27 0 25 -31 -4 -87 -44 -82 -40 -99 21 -84 19 5 46 12
61 15 20 4 26 11 21 22 -4 12 -14 14 -39 9 -39 -7 -41 -3 -16 33 28 40 32 59
21 91 -10 29 -35 40 -74 33z"/>
<path d="M12471 5784 c-28 -12 -31 -17 -31 -58 0 -37 4 -48 24 -61 19 -13 29
-14 45 -6 27 15 31 14 31 -8 0 -24 -18 -37 -32 -23 -10 10 -48 5 -48 -7 0 -31
62 -40 99 -15 21 15 23 22 18 76 -8 95 -43 129 -106 102z m47 -47 c2 -10 1
-26 -3 -35 -6 -16 -8 -15 -21 2 -20 28 -18 58 3 54 10 -2 19 -11 21 -21z"/>
<path d="M12376 5748 c-3 -18 -10 -60 -16 -92 -14 -84 -13 -98 8 -94 14 3 20
24 33 111 15 102 15 107 -2 107 -13 0 -20 -10 -23 -32z"/>
<path d="M12229 5723 c-5 -16 -17 -47 -26 -70 -21 -57 -13 -73 30 -66 28 4 35
2 39 -15 9 -32 44 -17 52 21 3 17 2 33 -4 37 -7 5 -30 92 -30 116 0 2 -11 4
-25 4 -19 0 -28 -7 -36 -27z m19 -94 c-18 -12 -22 5 -6 33 l13 23 3 -24 c2
-13 -2 -27 -10 -32z"/>
<path d="M11975 5718 c-2 -7 -11 -47 -19 -88 -9 -41 -19 -85 -22 -97 -5 -18
-2 -23 14 -23 17 0 23 11 36 68 28 126 31 152 12 152 -9 0 -18 -6 -21 -12z"/>
<path d="M12052 5717 c-19 -23 -24 -66 -13 -119 13 -59 22 -68 68 -68 52 0 66
23 61 102 -3 37 -11 75 -18 83 -15 18 -83 20 -98 2z m62 -34 c12 -45 16 -112
5 -118 -19 -12 -31 12 -36 74 -5 51 -3 61 10 61 9 0 18 -8 21 -17z"/>
<path d="M11168 5613 c-3 -64 -1 -101 6 -105 6 -4 35 -8 64 -8 45 0 52 3 52
20 0 16 -7 20 -34 20 -25 0 -35 5 -39 19 -6 26 0 31 40 31 27 0 34 4 31 18 -2
9 -10 18 -18 18 -8 1 -23 2 -32 3 -11 1 -18 9 -18 21 0 16 7 20 35 20 27 0 35
4 35 18 0 14 -10 18 -59 20 l-59 3 -4 -98z"/>
<path d="M11795 5697 c-13 -10 -18 -27 -18 -57 0 -51 23 -74 65 -64 21 4 28 2
28 -9 0 -23 -27 -41 -37 -24 -5 8 -17 11 -31 8 -21 -5 -22 -8 -9 -26 18 -23
82 -25 105 -2 20 20 18 132 -3 164 -18 27 -69 32 -100 10z m63 -55 c2 -24 -1
-32 -12 -32 -17 0 -32 42 -21 60 12 20 30 4 33 -28z"/>
<path d="M11320 5601 c0 -94 1 -101 20 -101 18 0 20 7 20 61 0 37 4 58 10 54
6 -3 10 -14 10 -23 0 -43 21 -92 40 -92 14 0 21 13 33 63 l15 62 1 -62 c1 -60
2 -63 26 -63 25 0 25 1 25 78 0 109 -5 122 -45 122 -32 0 -33 -1 -40 -55 -3
-30 -10 -55 -14 -55 -5 0 -12 24 -17 53 -9 51 -10 52 -46 55 l-38 3 0 -100z"/>
<path d="M11636 5678 c-21 -29 -20 -35 5 -41 15 -4 23 0 26 14 3 10 12 19 19
19 25 0 15 -44 -21 -89 -19 -24 -35 -52 -35 -62 0 -17 8 -19 65 -19 58 0 65 2
65 20 0 16 -7 20 -36 20 l-36 0 31 35 c33 38 42 90 19 113 -21 21 -85 15 -102
-10z"/>
<path d="M7419 12416 c-153 -159 -179 -197 -198 -284 -19 -91 20 -272 63 -288
36 -14 181 116 231 207 29 53 29 56 36 266 4 117 10 221 14 233 3 11 5 20 3
19 -2 0 -69 -69 -149 -153z"/>
<path d="M10111 12303 c-6 -10 -11 -15 -11 -11 0 4 -24 -4 -53 -18 -60 -27
-274 -64 -374 -64 -94 0 -204 18 -358 58 -123 32 -154 37 -260 37 -115 0 -123
-1 -185 -32 -36 -17 -78 -35 -93 -38 -30 -8 -117 -81 -117 -98 0 -6 7 -1 16
12 13 18 18 20 25 10 7 -11 9 -11 10 -1 3 26 4 31 9 36 3 3 7 -7 8 -21 1 -15
8 -30 14 -34 7 -5 9 -11 5 -16 -5 -4 -11 -2 -15 4 -9 15 -38 11 -55 -7 -10
-10 -9 -11 1 -6 7 4 20 2 29 -6 14 -11 16 -11 8 2 -6 12 -5 13 5 3 11 -10 11
-16 -1 -30 -9 -10 -16 -31 -17 -46 -1 -15 -8 -40 -16 -55 -12 -24 -15 -147
-16 -778 l-1 -749 41 0 40 0 0 676 c0 711 3 759 46 869 23 59 69 126 100 147
29 18 178 23 364 11 58 -3 95 -4 83 -1 -13 2 -23 10 -23 18 0 7 -6 16 -12 19
-7 3 -3 3 9 1 12 -3 24 -2 27 3 3 6 -10 13 -30 17 -68 12 -25 17 68 6 51 -6
138 -13 193 -17 65 -4 105 -11 115 -20 8 -8 10 -14 3 -14 -6 0 -13 6 -16 13
-3 9 -7 9 -18 0 -8 -6 -25 -13 -39 -16 -23 -4 -22 -4 5 -6 24 -1 27 -3 15 -11
-22 -15 212 -1 285 17 94 23 161 67 191 124 16 31 12 40 -5 12z m-37 -38 c-10
-8 -23 -14 -29 -14 -5 0 -1 6 9 14 11 8 24 15 30 15 5 0 1 -7 -10 -15z m-1294
-55 c-8 -5 -10 -10 -5 -10 13 0 -17 -20 -30 -20 -5 0 -3 5 5 10 13 9 13 10 0
10 -13 0 -13 1 0 10 8 5 22 10 30 10 13 0 13 -1 0 -10z m-5 -50 c3 -5 2 -10
-4 -10 -5 0 -13 5 -16 10 -3 6 -2 10 4 10 5 0 13 -4 16 -10z m920 0 c18 -8 17
-9 -7 -9 -16 -1 -28 4 -28 9 0 12 8 12 35 0z m-889 -15 c-7 -18 5 -19 24 -2
12 10 12 9 1 -5 -7 -10 -21 -18 -30 -18 -9 -1 -29 -18 -46 -39 -16 -21 -33
-37 -38 -34 -4 2 13 25 38 51 25 25 45 50 45 54 0 4 3 8 6 8 3 0 4 -7 0 -15z"/>
<path d="M10380 12312 c0 -7 22 -35 48 -61 76 -76 139 -94 362 -105 86 -5 92
-4 65 9 -28 13 -28 13 -6 14 20 1 21 3 11 16 -11 13 -6 15 31 15 56 1 144 8
237 20 92 12 115 12 84 -1 -13 -5 -29 -6 -35 -2 -7 4 -4 -5 6 -20 17 -26 17
-27 -2 -27 -11 0 -23 -4 -26 -10 -8 -12 -10 -12 157 1 76 6 171 8 213 4 70 -6
78 -10 111 -43 47 -50 89 -141 108 -235 14 -68 16 -169 15 -754 l-1 -675 38
-2 39 -2 -2 705 c-2 787 -3 860 -14 867 -4 2 -5 -6 -2 -18 3 -14 -6 -5 -24 22
-16 25 -37 51 -46 58 -13 11 -14 16 -2 30 8 9 23 28 34 42 18 21 22 23 31 10
6 -8 8 -25 5 -37 -3 -13 -1 -23 5 -23 5 0 10 8 10 17 0 12 3 14 11 6 10 -10 2
-30 -28 -72 -3 -5 -42 42 -43 52 0 5 7 1 16 -7 19 -19 31 -21 16 -3 -6 7 -9
24 -5 38 5 24 5 23 -21 -5 -14 -16 -26 -30 -26 -32 0 -10 53 -54 64 -54 8 0
17 11 20 24 4 18 12 24 26 21 20 -4 20 -3 -1 28 -39 56 -89 95 -142 113 -29 9
-62 25 -75 35 -65 51 -244 50 -436 -1 -228 -60 -353 -70 -533 -44 -65 10 -130
18 -145 18 -14 1 -24 4 -22 7 2 3 -12 11 -31 17 -19 5 -33 6 -29 1 13 -22 -12
-6 -37 24 -16 17 -28 26 -29 19z m1404 -121 c4 -5 -3 -7 -14 -4 -23 6 -26 13
-6 13 8 0 17 -4 20 -9z m-20 -25 c-3 -8 -13 -17 -22 -21 -13 -5 -13 -2 3 15
21 24 26 25 19 6z m-98 -22 c18 -14 18 -14 -6 -3 -31 14 -36 19 -24 19 6 0 19
-7 30 -16z"/>
<path d="M10175 12175 c-116 -115 -238 -181 -411 -222 -107 -25 -361 -25 -488
1 -106 21 -236 66 -289 102 -21 14 -40 24 -42 22 -2 -2 -9 -37 -16 -78 -17
-104 -25 -1604 -9 -1701 11 -66 58 -180 79 -193 36 -23 -16 -26 -383 -26
l-394 0 0 -45 1 -45 448 0 449 0 87 -50 c48 -27 91 -50 95 -50 4 0 8 -3 8 -7
0 -5 -244 -8 -542 -8 l-543 0 -1 -30 c-4 -71 -66 -64 679 -67 l672 -3 115 -57
115 -56 -793 -1 -793 -1 3 -47 3 -48 890 -5 890 -5 87 -60 c48 -32 84 -63 82
-67 -3 -4 -444 -8 -980 -8 l-974 0 0 -27 c0 -16 3 -38 6 -50 l6 -22 2034 0
2034 0 0 49 0 50 -972 1 c-535 1 -982 0 -993 -1 -20 -2 -20 -2 0 20 11 12 53
44 93 71 l74 49 899 0 899 0 0 50 0 50 -802 0 -803 1 40 21 c22 12 82 38 132
60 l93 38 670 0 671 0 -3 48 -3 47 -550 5 c-546 5 -550 5 -515 24 19 10 55 33
80 50 25 17 57 31 73 32 15 1 227 2 472 3 l445 1 0 45 0 45 -410 0 c-225 0
-410 3 -410 6 0 4 15 30 34 58 74 112 71 68 71 961 0 623 -3 819 -14 888 -7
48 -15 87 -17 87 -2 0 -19 -11 -39 -25 -117 -79 -391 -134 -610 -122 -256 14
-489 119 -614 277 l-36 45 -80 -80z m146 -78 c171 -157 442 -240 720 -223 168
10 347 48 432 93 24 12 31 12 37 2 17 -27 21 -241 18 -944 l-3 -730 -25 -50
-25 -50 -593 0 c-327 0 -596 3 -598 6 -2 4 -4 140 -4 304 l-1 298 26 27 c31
33 91 50 169 50 74 0 153 31 198 77 44 46 58 79 58 141 l0 46 -32 -32 c-45
-43 -89 -59 -183 -67 -90 -7 -176 -29 -211 -52 -23 -14 -24 -14 -24 5 0 27 53
70 93 76 18 3 62 7 99 10 43 3 89 15 130 34 83 38 117 85 125 173 l6 63 -43
-37 c-50 -43 -87 -55 -185 -63 -79 -6 -169 -28 -202 -50 -21 -13 -23 -13 -22
3 0 10 14 29 30 42 25 19 49 26 122 32 119 11 181 33 234 81 45 42 63 85 63
152 l0 38 -34 -30 c-48 -42 -106 -61 -218 -71 -71 -6 -111 -15 -148 -33 -58
-29 -68 -15 -20 26 33 27 54 32 169 40 158 11 251 95 251 227 l0 37 -35 -32
c-39 -36 -122 -66 -182 -66 -73 0 -159 -22 -225 -58 -3 -1 -9 11 -13 28 -7 30
-9 31 -53 28 l-47 -3 -5 -725 -5 -724 -572 -3 -572 -3 -15 28 c-33 63 -36 141
-35 866 0 639 6 876 21 891 2 2 31 -7 64 -20 86 -35 164 -54 284 -70 247 -34
475 -2 666 92 74 37 234 156 234 174 0 17 12 9 81 -54z m1129 -1929 c0 -7 -14
-27 -32 -45 l-32 -33 -1143 0 -1142 0 -26 28 c-15 15 -31 35 -36 45 -9 16 51
17 1201 17 936 0 1210 -3 1210 -12z"/>
<path d="M7042 12131 c-55 -85 -82 -172 -82 -270 0 -93 23 -166 82 -264 48
-80 53 -79 97 28 43 103 42 171 -5 317 -20 62 -39 144 -43 183 l-7 70 -42 -64z"/>
<path d="M11028 12143 c7 -3 16 -2 19 1 4 3 -2 6 -13 5 -11 0 -14 -3 -6 -6z"/>
<path d="M8616 12063 c-6 -14 -5 -15 5 -6 7 7 10 15 7 18 -3 3 -9 -2 -12 -12z"/>
<path d="M8591 11934 c0 -11 3 -14 6 -6 3 7 2 16 -1 19 -3 4 -6 -2 -5 -13z"/>
<path d="M8652 11920 c0 -19 2 -27 5 -17 2 9 2 25 0 35 -3 9 -5 1 -5 -18z"/>
<path d="M11850 11895 c0 -8 4 -15 10 -15 5 0 7 7 4 15 -4 8 -8 15 -10 15 -2
0 -4 -7 -4 -15z"/>
<path d="M7610 11852 c-25 -16 -83 -43 -130 -62 -173 -68 -211 -94 -255 -180
-22 -44 -51 -157 -42 -166 6 -7 142 43 207 76 101 51 205 164 239 260 12 33
30 100 27 100 0 0 -21 -13 -46 -28z"/>
<path d="M8624 11842 c11 -12 20 -22 20 -22 1 0 2 10 3 23 0 12 -1 16 -4 9 -4
-10 -8 -10 -21 0 -12 9 -11 6 2 -10z"/>
<path d="M6822 11740 c-85 -146 -109 -302 -71 -453 20 -76 167 -296 189 -282
4 3 23 44 41 93 30 79 33 97 33 202 1 136 -14 194 -74 290 -51 81 -71 125 -80
170 l-6 35 -32 -55z"/>
<path d="M7525 11463 c-33 -25 -118 -74 -190 -108 -140 -67 -189 -107 -223
-179 -25 -52 -45 -149 -40 -198 l3 -36 50 21 c98 43 215 111 265 155 65 56
143 172 168 248 19 57 37 144 30 144 -1 -1 -30 -21 -63 -47z"/>
<path d="M6690 11180 c-28 -53 -62 -170 -67 -236 -7 -86 11 -191 42 -254 49
-97 195 -264 214 -245 19 19 43 131 48 225 5 84 2 104 -21 173 -29 87 -59 138
-123 214 -25 29 -53 73 -62 99 -18 46 -19 47 -31 24z"/>
<path d="M7369 10986 c-31 -28 -105 -80 -164 -115 -193 -114 -226 -162 -233
-340 -5 -120 -13 -116 99 -50 157 91 249 185 308 313 26 57 53 177 49 217 l-3
27 -56 -52z"/>
<path d="M6555 10583 c-27 -85 -31 -216 -10 -305 19 -80 46 -133 100 -198 43
-52 185 -171 195 -165 14 9 33 168 27 234 -11 134 -85 274 -192 366 -30 25
-62 63 -71 85 -10 22 -21 40 -24 40 -4 0 -15 -26 -25 -57z"/>
<path d="M7265 10502 c-27 -31 -86 -82 -130 -115 -165 -121 -205 -175 -213
-289 -6 -83 5 -178 21 -178 20 0 149 101 219 172 99 100 150 212 164 362 10
107 0 115 -61 48z"/>
<path d="M6510 10054 c-47 -163 1 -378 110 -491 57 -60 216 -173 243 -173 13
0 7 214 -7 265 -31 116 -106 221 -216 304 -43 32 -84 73 -96 95 l-22 39 -12
-39z"/>
<path d="M7237 10037 c-34 -53 -63 -84 -168 -179 -100 -90 -139 -153 -146
-237 -6 -60 20 -205 37 -216 14 -9 203 183 243 246 55 87 82 186 82 299 -1 52
-5 103 -11 112 -8 15 -13 11 -37 -25z"/>
<path d="M7224 9578 c-13 -42 -70 -122 -148 -207 -100 -112 -126 -163 -126
-255 0 -65 34 -193 55 -215 10 -9 115 108 173 194 89 132 120 283 88 429 -18
78 -29 93 -42 54z"/>
<path d="M6437 9491 c-16 -195 66 -377 217 -480 38 -26 199 -111 211 -111 19
0 -8 203 -37 275 -39 99 -136 205 -245 267 -37 21 -84 57 -104 79 l-36 41 -6
-71z"/>
<path d="M8240 8754 c0 -227 5 -426 11 -467 55 -374 296 -576 779 -651 99 -15
322 -36 391 -36 l39 0 0 775 0 775 -610 0 -610 0 0 -396z m1190 -380 l0 -746
-107 6 c-619 38 -927 207 -1025 562 -20 74 -22 106 -26 502 l-4 422 581 0 581
0 0 -746z"/>
<path d="M8915 8904 c-17 -33 -23 -80 -10 -92 13 -14 45 34 45 67 0 57 -13 66
-35 25z"/>
<path d="M8856 8836 c-11 -44 16 -86 55 -86 14 0 59 51 59 67 0 9 -11 6 -39
-11 l-39 -25 -6 34 c-8 43 -22 52 -30 21z"/>
<path d="M9287 8792 c-27 -28 -37 -46 -37 -70 0 -37 14 -40 49 -13 18 14 26
32 31 70 3 28 4 51 0 51 -3 0 -23 -17 -43 -38z"/>
<path d="M8820 8775 c-20 -53 11 -113 57 -107 26 4 73 49 73 69 0 11 -11 9
-45 -10 -41 -23 -45 -24 -45 -7 0 10 -6 33 -14 51 l-14 34 -12 -30z"/>
<path d="M9203 8745 c-12 -22 -16 -46 -14 -87 1 -21 5 -26 18 -21 11 4 14 3 9
-5 -16 -26 54 -12 86 17 41 37 34 46 -22 26 -23 -8 -44 -15 -46 -15 -2 0 -4
15 -5 33 0 17 -4 41 -8 52 -8 19 -8 19 -18 0z"/>
<path d="M8782 8703 c-19 -35 -12 -110 9 -97 5 3 9 0 9 -5 0 -16 42 -13 68 5
12 8 27 24 33 35 10 19 8 20 -13 14 -12 -4 -35 -13 -50 -20 -27 -13 -28 -13
-29 18 0 18 -4 41 -8 52 -8 19 -8 19 -19 -2z"/>
<path d="M9136 8675 c-22 -33 -31 -87 -19 -109 8 -14 12 -14 28 -3 19 15 29
85 16 121 -6 17 -9 16 -25 -9z"/>
<path d="M8736 8628 c-21 -30 -22 -102 -2 -95 10 4 13 1 9 -9 -12 -33 88 0
107 35 6 12 9 21 8 21 -2 0 -24 -7 -50 -15 l-48 -14 -1 42 c-1 23 -1 45 0 50
2 13 -8 7 -23 -15z"/>
<path d="M9065 8600 c-20 -22 -39 -110 -27 -122 18 -18 50 36 54 90 3 57 0 62
-27 32z"/>
<path d="M9238 8600 c-44 -5 -98 -40 -98 -62 0 -4 18 -8 40 -8 32 0 48 7 78
34 20 19 35 36 32 38 -3 2 -26 1 -52 -2z"/>
<path d="M8678 8560 c-20 -27 -24 -90 -7 -90 5 0 7 -4 4 -10 -10 -16 68 -12
93 6 34 24 26 34 -22 28 l-45 -7 -3 49 -3 49 -17 -25z"/>
<path d="M8999 8537 c-24 -18 -46 -58 -53 -96 -5 -30 -4 -33 15 -28 17 5 18 3
8 -9 -16 -19 -11 -22 36 -27 41 -5 82 10 103 36 10 12 5 15 -29 20 -23 3 -53
1 -67 -4 -21 -8 -23 -7 -17 8 7 17 25 106 21 110 0 1 -8 -4 -17 -10z"/>
<path d="M8504 8458 c-47 -94 -66 -118 -117 -146 -29 -16 -34 -21 -17 -18 14
3 41 6 60 7 19 0 29 3 22 6 -9 3 2 13 27 24 32 14 48 16 68 8 30 -11 77 -4 92
15 8 10 2 16 -27 25 -36 12 -37 14 -34 52 2 21 0 39 -5 39 -17 0 -44 -36 -54
-72 -8 -29 -40 -58 -64 -58 -2 0 11 26 30 58 36 60 69 132 60 132 -2 0 -21
-33 -41 -72z"/>
<path d="M8611 8494 c-22 -28 -27 -69 -12 -92 12 -20 77 -17 109 5 l27 18 -51
3 -51 3 5 44 c2 25 2 45 -1 45 -3 0 -15 -12 -26 -26z"/>
<path d="M9083 8490 c-46 -28 -41 -40 17 -40 41 0 55 5 82 30 l33 29 -50 1
c-33 0 -61 -7 -82 -20z"/>
<path d="M8895 8458 c-25 -23 -38 -45 -42 -72 -6 -38 -6 -38 18 -26 13 7 28
20 34 29 11 18 34 101 28 101 -2 0 -19 -15 -38 -32z"/>
<path d="M8808 8414 c-16 -8 -37 -32 -48 -54 -24 -48 -24 -50 -2 -50 13 0 14
-2 3 -9 -10 -7 -8 -12 10 -25 28 -19 95 -20 128 -2 23 13 23 13 -19 30 -27 11
-54 15 -72 10 l-30 -6 21 21 c12 12 21 27 21 34 0 6 7 24 14 40 17 31 13 32
-26 11z"/>
<path d="M8709 8372 c-19 -10 -43 -33 -54 -55 -21 -39 -39 -47 -134 -62 -33
-5 -42 -4 -36 5 6 9 3 9 -12 2 -11 -6 -43 -14 -71 -18 -56 -7 -62 -24 -9 -22
18 1 42 -4 54 -10 33 -18 73 -32 73 -26 0 3 -13 10 -30 15 -43 15 -37 25 18
33 26 4 65 9 88 12 30 5 51 1 80 -14 39 -20 89 -21 120 -4 11 6 3 14 -34 33
l-48 24 18 49 c11 27 17 50 15 52 -2 2 -19 -4 -38 -14z"/>
<path d="M8891 8358 c-13 -7 -23 -17 -22 -23 2 -16 49 -28 85 -21 36 7 74 31
65 40 -14 14 -105 17 -128 4z"/>
<path d="M9161 8296 c-39 -14 -76 -55 -63 -68 19 -19 63 4 83 43 10 22 18 39
17 38 -2 0 -18 -6 -37 -13z"/>
<path d="M8488 8293 c12 -2 20 -9 17 -14 -3 -5 1 -6 10 -2 13 5 14 7 3 14 -7
5 -22 8 -33 7 -17 -1 -17 -1 3 -5z"/>
<path d="M9061 8264 c-25 -32 -28 -79 -5 -88 27 -10 59 -7 80 9 19 14 18 14
-3 16 -13 1 -27 3 -33 4 -5 1 -14 3 -19 4 -6 0 -5 16 1 37 12 46 6 52 -21 18z"/>
<path d="M8997 8240 c-27 -21 -53 -80 -36 -80 6 0 8 -4 4 -9 -15 -26 69 -40
108 -19 21 11 21 11 2 19 -11 4 -34 8 -52 8 -31 1 -31 2 -18 29 16 33 28 72
22 72 -2 0 -16 -9 -30 -20z"/>
<path d="M8575 8179 c-52 -53 -90 -72 -145 -72 -43 0 -44 0 -15 -9 17 -6 52
-31 80 -57 37 -34 41 -36 16 -9 -46 50 -32 60 19 14 28 -25 50 -36 70 -36 l31
0 -18 25 c-10 13 -21 25 -25 25 -14 0 -8 21 12 42 11 12 20 25 20 30 0 18 -54
7 -82 -17 -16 -14 -34 -22 -39 -19 -6 3 9 18 33 34 46 30 108 90 92 90 -6 0
-28 -18 -49 -41z"/>
<path d="M8905 8187 c-34 -34 -46 -67 -24 -67 5 0 8 -4 4 -9 -16 -27 77 -41
110 -17 17 12 14 14 -34 21 -28 4 -50 10 -48 14 18 34 37 84 33 88 -3 3 -21
-10 -41 -30z"/>
<path d="M8827 8169 c-22 -13 -52 -69 -37 -69 6 0 8 -5 5 -11 -11 -16 26 -38
65 -39 57 0 64 14 15 29 -25 7 -45 16 -45 20 0 3 9 20 20 36 11 17 20 33 20
38 0 10 -22 8 -43 -4z"/>
<path d="M8731 8134 c-35 -29 -40 -63 -13 -86 22 -20 73 -31 91 -19 11 7 4 15
-32 32 -36 18 -44 25 -32 32 8 4 22 21 30 37 13 26 14 30 1 30 -8 0 -28 -12
-45 -26z"/>
<path d="M8665 8141 c-24 -10 -58 -47 -61 -66 -3 -22 40 -55 80 -62 47 -7 46
6 -4 39 -27 17 -36 27 -26 31 7 3 23 19 35 36 23 32 16 38 -24 22z"/>
<path d="M9510 8376 l0 -773 102 -7 c306 -21 508 -109 615 -268 l25 -37 72 74
c60 62 88 82 167 119 93 44 247 89 344 101 28 4 62 9 78 11 l27 6 0 774 0 774
-715 0 -715 0 0 -774z m1400 -4 l0 -748 -92 -13 c-160 -23 -330 -81 -424 -145
-21 -14 -60 -47 -86 -72 l-48 -47 -64 66 c-114 117 -285 183 -537 208 l-119
12 0 743 0 744 685 0 685 0 0 -748z"/>
<path d="M10230 8938 c0 -2 20 -25 44 -51 24 -26 51 -68 61 -93 18 -47 18 -47
-5 -64 l-23 -17 18 -54 c23 -71 23 -71 45 -59 55 29 85 120 60 184 -14 37 -85
111 -123 129 -37 17 -77 30 -77 25z"/>
<path d="M9736 8898 c-40 -62 -38 -169 5 -229 18 -26 106 -87 112 -78 6 8 37
85 39 97 2 7 -22 25 -52 40 -74 36 -94 72 -82 141 10 54 2 65 -22 29z"/>
<path d="M10063 8731 c-128 -7 -138 -12 -174 -94 -17 -40 -24 -82 -30 -180 -4
-71 -10 -141 -14 -156 -7 -32 10 -41 76 -41 60 0 102 -70 99 -162 -1 -24 -1
-47 -1 -52 1 -14 39 23 88 87 24 31 72 76 106 98 125 84 159 129 150 200 -7
50 -9 50 69 -18 20 -17 53 -35 73 -39 45 -8 120 19 141 51 25 38 9 63 -59 96
-59 29 -66 30 -154 23 l-92 -6 -6 28 c-13 56 -37 129 -51 152 -16 24 -5 24
-221 13z"/>
<path d="M9692 8549 c-41 -12 -122 -89 -122 -116 0 -40 145 -67 233 -42 32 8
37 14 37 38 0 16 3 41 6 57 8 43 -13 64 -71 69 -27 2 -65 0 -83 -6z"/>
<path d="M10660 8505 c0 -2 5 -15 11 -29 10 -20 8 -29 -11 -55 -54 -77 -179
-83 -244 -12 -27 30 -36 26 -36 -14 0 -41 -50 -102 -123 -151 -23 -16 -55 -39
-72 -53 -35 -28 -125 -138 -125 -153 0 -5 34 -72 76 -149 71 -129 78 -139 105
-139 16 0 29 1 29 3 0 2 -31 63 -70 135 -38 72 -70 138 -70 146 0 19 107 127
193 194 79 62 104 65 170 21 41 -27 50 -29 81 -20 20 5 50 19 67 32 22 16 52
24 98 28 l66 6 3 101 3 101 -38 7 c-44 7 -113 8 -113 1z"/>
<path d="M9808 8233 c-28 -33 -38 -61 -38 -112 l0 -51 50 -25 c61 -31 138 -34
163 -7 22 24 23 122 2 161 -25 49 -144 71 -177 34z"/>
<path d="M10759 8005 c-77 -52 -113 -131 -97 -212 l9 -43 70 0 69 0 0 134 c0
74 -4 137 -8 140 -5 3 -24 -6 -43 -19z"/>
<path d="M11000 8893 c0 -142 -3 -491 -7 -775 l-6 -518 97 0 c177 0 404 32
574 81 252 72 439 212 527 394 66 138 67 146 74 620 4 237 5 436 3 443 -3 9
-139 12 -633 12 l-629 0 0 -257z m1230 -165 c0 -348 -2 -404 -19 -486 -58
-279 -240 -444 -601 -546 -92 -25 -297 -56 -420 -62 -63 -3 -127 -7 -142 -9
l-28 -4 0 613 c0 337 3 674 7 749 l6 137 599 0 598 0 0 -392z"/>
<path d="M11814 8801 c4 -5 -2 -7 -12 -4 -10 2 -24 -3 -31 -11 -8 -9 -22 -16
-32 -16 -11 0 -19 -4 -19 -10 0 -5 -7 -10 -15 -10 -8 0 -15 -7 -15 -15 0 -8
-6 -15 -14 -15 -18 0 -146 -122 -146 -139 0 -7 -5 -9 -11 -6 -6 4 -13 -2 -16
-14 -3 -12 -11 -21 -18 -21 -19 0 -27 -30 -13 -49 12 -14 11 -14 -4 -2 -15 11
-19 11 -24 -4 -4 -9 -20 -31 -35 -48 -16 -17 -29 -37 -29 -44 0 -7 -3 -13 -7
-13 -9 0 -43 -57 -43 -70 0 -5 -12 -21 -26 -37 -16 -18 -24 -35 -21 -50 2 -12
-1 -21 -7 -20 -5 1 -11 -7 -12 -18 0 -11 -4 -30 -8 -41 -4 -12 -9 -39 -12 -60
-2 -22 -7 -48 -11 -59 -24 -75 -3 -77 67 -6 58 58 79 75 184 146 47 32 86 63
86 67 0 5 4 7 9 4 13 -8 34 21 25 35 -4 8 -3 9 5 5 19 -12 89 74 76 93 -2 5 5
11 16 14 15 4 20 11 16 21 -4 10 -1 16 6 16 7 0 19 16 27 35 7 19 20 37 28 40
8 3 12 12 9 19 -3 8 1 17 8 20 8 3 12 12 9 19 -3 8 2 17 10 20 9 4 13 13 10
22 -3 8 -2 15 4 15 5 0 13 10 17 23 4 12 8 24 9 27 12 26 26 62 26 65 0 2 -8
6 -17 8 -14 4 -13 5 4 6 17 1 21 7 20 36 -1 34 -2 35 -40 35 -21 0 -36 -4 -33
-9z m-55 -142 c3 -11 1 -12 -11 -2 -8 7 -19 9 -23 5 -5 -4 -5 -1 -1 6 9 16 28
11 35 -9z m-29 -41 c0 -5 -9 -3 -20 4 -11 7 -20 16 -20 20 0 5 9 3 20 -4 11
-7 20 -16 20 -20z m-10 -22 c0 -2 -7 -6 -15 -10 -8 -3 -15 -1 -15 4 0 6 7 10
15 10 8 0 15 -2 15 -4z m-80 -46 c0 -5 -7 -7 -15 -4 -8 4 -15 8 -15 10 0 2 7
4 15 4 8 0 15 -4 15 -10z m-81 -64 c-3 -3 -11 5 -18 17 -13 21 -12 21 5 5 10
-10 16 -20 13 -22z m-6 -29 c3 -7 -3 -13 -14 -13 -13 0 -15 3 -7 13 6 7 12 13
13 13 2 0 5 -6 8 -13z m37 -27 c0 -5 -8 -10 -17 -10 -15 0 -16 2 -3 10 19 12
20 12 20 0z m-70 -9 c0 -13 -28 -22 -35 -11 -3 4 1 11 7 13 20 8 28 8 28 -2z
m114 -23 c-3 -4 -9 -8 -15 -8 -5 0 -9 4 -9 8 0 5 7 9 15 9 8 0 12 -4 9 -9z
m-104 -42 c0 -3 -4 -8 -10 -11 -5 -3 -10 -1 -10 4 0 6 5 11 10 11 6 0 10 -2
10 -4z m-98 -38 c-7 -7 -12 -8 -12 -2 0 14 12 26 19 19 2 -3 -1 -11 -7 -17z
m78 -2 c0 -2 -7 -6 -15 -10 -8 -3 -15 -1 -15 4 0 6 7 10 15 10 8 0 15 -2 15
-4z m-40 -41 c-7 -9 -15 -13 -19 -10 -3 3 1 10 9 15 21 14 24 12 10 -5z m-85
-105 c-3 -5 -12 -10 -18 -10 -7 0 -6 4 3 10 19 12 23 12 15 0z"/>
<path d="M11189 8743 c-20 -5 -39 -45 -39 -80 0 -15 -11 -39 -25 -53 -15 -16
-29 -46 -35 -79 -14 -76 -12 -91 8 -55 21 40 114 124 136 124 22 0 39 47 32
88 -8 55 -27 69 -77 55z"/>
<path d="M11282 8678 c11 -53 4 -100 -34 -212 -28 -83 -39 -168 -49 -366 l-2
-35 -6 40 -7 40 -13 -60 c-6 -33 -16 -73 -22 -89 -12 -39 -2 -47 23 -16 l21
25 -7 -27 c-3 -16 -2 -28 3 -28 10 0 8 -8 54 216 33 160 60 244 79 244 4 0 -1
-17 -11 -37 -10 -21 -22 -54 -25 -73 -5 -29 3 -20 49 53 49 79 104 158 136
195 13 15 4 73 -17 114 -17 32 -14 31 -48 18 -18 -7 -24 -14 -20 -27 5 -16 4
-16 -8 -3 -7 9 -34 28 -59 43 l-47 27 10 -42z"/>
<path d="M11887 8538 c-43 -17 -85 -41 -93 -52 -8 -12 -43 -65 -78 -118 l-64
-97 40 20 c70 36 51 14 -38 -42 -224 -142 -335 -221 -343 -242 -2 -7 7 -4 20
6 36 26 149 83 189 95 19 6 55 13 78 16 25 2 61 16 82 31 51 35 210 205 269
288 13 19 13 19 -14 1 -20 -13 -27 -14 -24 -5 10 30 72 52 137 49 58 -3 62 -1
62 18 0 32 -24 47 -64 40 -25 -5 -35 -3 -40 9 -8 22 -31 18 -119 -17z m73 -8
c-8 -5 -19 -10 -25 -10 -5 0 -3 5 5 10 8 5 20 10 25 10 6 0 3 -5 -5 -10z
m-270 -345 c-7 -9 -27 -25 -44 -36 -24 -16 -22 -12 9 15 43 38 55 46 35 21z"/>
<path d="M12132 8463 c8 -10 20 -27 26 -38 11 -20 11 -20 12 2 0 23 -24 53
-42 53 -6 0 -5 -8 4 -17z"/>
<path d="M12510 4713 c-181 -32 -306 -139 -363 -311 -68 -206 -53 -501 34
-675 83 -164 236 -247 459 -247 285 0 459 137 515 405 22 104 23 321 1 430
-19 97 -69 204 -124 266 -47 53 -133 102 -217 124 -56 14 -241 19 -305 8z
m198 -103 c39 -24 65 -77 83 -170 21 -103 18 -615 -4 -703 -31 -124 -64 -159
-147 -159 -57 0 -89 19 -117 69 -38 68 -48 168 -48 458 0 285 9 375 46 447 37
73 120 99 187 58z"/>
<path d="M13573 4705 c-119 -32 -211 -105 -256 -203 -18 -38 -22 -65 -22 -142
0 -82 4 -103 27 -152 52 -113 156 -197 323 -263 113 -44 166 -76 209 -127 30
-35 36 -49 36 -88 0 -56 -29 -104 -80 -134 -28 -17 -52 -21 -120 -21 -95 0
-145 14 -192 53 -60 51 -83 150 -58 257 5 22 8 40 7 42 -1 1 -38 -6 -82 -16
l-80 -17 0 -95 c1 -77 5 -102 23 -136 67 -127 190 -183 407 -183 149 0 230 24
324 94 122 91 165 285 95 432 -59 124 -192 217 -445 308 -65 23 -138 74 -160
110 -40 65 -14 147 57 181 47 23 189 27 247 7 91 -33 131 -94 131 -200 l-1
-74 31 6 c17 3 51 8 74 12 24 4 46 13 49 21 8 21 -16 132 -39 178 -40 79 -100
124 -203 151 -65 18 -235 17 -302 -1z"/>
<path d="M5690 4691 c-78 -25 -111 -44 -162 -93 -62 -61 -89 -122 -95 -216 -4
-62 -1 -89 17 -142 46 -136 142 -220 343 -300 101 -39 182 -91 207 -132 26
-43 26 -113 0 -156 -30 -49 -88 -72 -185 -72 -119 0 -187 35 -227 115 -18 34
-20 52 -15 137 l5 97 -31 -6 c-112 -22 -122 -27 -128 -66 -8 -47 7 -149 26
-187 42 -81 118 -138 221 -164 92 -24 284 -22 366 4 151 46 237 145 259 294
30 216 -111 375 -441 496 -152 55 -222 128 -201 207 17 61 37 81 98 99 78 23
186 15 250 -18 69 -35 98 -90 97 -184 l-1 -71 69 13 c38 7 72 15 76 18 5 3 5
34 1 70 -17 138 -94 225 -231 262 -76 20 -249 17 -318 -5z"/>
<path d="M11010 4100 l0 -600 175 0 175 0 0 290 0 290 36 0 c99 0 163 -41 183
-118 5 -20 14 -120 19 -222 6 -111 14 -196 22 -212 l13 -28 189 0 188 0 -14
23 c-20 30 -42 131 -55 249 -22 199 -47 249 -155 301 l-57 28 81 40 c117 59
162 126 163 243 0 118 -50 198 -162 260 -89 48 -156 56 -493 56 l-308 0 0
-600z m530 468 c63 -32 90 -88 90 -183 0 -84 -23 -142 -71 -175 -26 -19 -49
-25 -116 -28 l-83 -5 0 207 0 206 68 0 c50 0 79 -6 112 -22z"/>
<path d="M14500 4488 c-34 -117 -84 -285 -110 -373 -27 -88 -76 -254 -109
-370 -34 -115 -64 -218 -67 -228 -5 -16 1 -18 62 -15 l67 3 18 55 c10 30 27
88 39 128 l21 72 182 -2 182 -3 35 -127 35 -128 172 0 c141 0 173 3 173 14 0
8 -9 42 -19 77 -18 60 -269 959 -295 1059 l-12 45 -156 3 -155 2 -63 -212z
m180 -338 c34 -129 64 -243 66 -252 5 -17 -6 -18 -140 -18 -80 0 -146 3 -146
8 -1 23 145 511 151 504 4 -4 35 -113 69 -242z"/>
<path d="M6576 4323 c-60 -203 -137 -464 -172 -582 -35 -118 -64 -218 -64
-223 0 -4 29 -8 65 -8 l64 0 25 83 c14 45 30 101 37 125 l12 42 169 2 c92 0
173 1 179 2 7 1 27 -54 46 -124 19 -68 35 -125 36 -126 6 -6 325 -11 334 -6 9
6 -138 555 -303 1130 l-15 52 -152 0 -152 0 -109 -367z m224 -170 c35 -131 65
-246 68 -255 4 -17 -8 -18 -143 -18 -135 0 -147 1 -143 18 47 171 143 492 148
492 4 0 35 -107 70 -237z"/>
<path d="M7412 4098 l3 -593 53 -3 52 -3 0 371 c0 230 4 370 9 368 6 -1 69
-93 141 -203 73 -110 180 -273 238 -362 l107 -162 70 -6 c39 -4 97 -5 130 -3
l60 3 3 593 2 592 -55 0 -55 0 -2 -402 -3 -403 -267 403 -268 402 -110 0 -110
0 2 -592z"/>
<path d="M8360 4643 c0 -49 10 -75 26 -72 5 1 69 1 142 0 l132 -1 0 -529 0
-528 46 -7 c60 -8 204 -8 272 1 l53 6 -3 528 -3 529 145 2 145 3 3 58 3 57
-481 0 -480 0 0 -47z"/>
<path d="M9640 4685 c0 -6 -115 -398 -159 -545 -70 -228 -181 -609 -181 -619
0 -7 24 -11 64 -11 l64 0 22 73 c12 39 29 96 38 125 l16 52 180 -2 181 -3 31
-118 c18 -65 35 -121 38 -124 8 -9 270 -16 309 -9 35 6 35 7 26 39 -5 18 -77
275 -160 572 -82 297 -152 548 -155 558 -5 15 -21 17 -160 17 -85 0 -154 -2
-154 -5z m119 -537 c35 -134 66 -249 69 -255 3 -10 -29 -13 -142 -13 -80 0
-146 3 -146 6 0 4 32 116 70 250 39 133 70 245 70 248 0 3 3 6 8 6 4 0 36
-109 71 -242z"/>
<path d="M13149 3280 c-31 -59 -32 -60 -75 -60 l-44 0 0 -535 0 -536 153 3
152 3 3 533 c1 353 -1 532 -8 532 -22 0 -7 19 55 65 36 27 65 51 65 52 0 2
-60 3 -134 3 l-135 0 -32 -60z m164 -25 c-118 -106 -160 -135 -198 -135 -19 0
-35 3 -35 6 0 3 26 46 58 95 l57 89 89 0 89 0 -60 -55z"/>
<path d="M8506 3224 c-162 -39 -262 -138 -309 -307 -26 -95 -28 -328 -3 -430
44 -183 151 -300 308 -337 77 -17 249 -12 319 10 199 61 285 203 296 485 13
341 -86 518 -322 580 -73 18 -210 18 -289 -1z m177 -75 c48 -13 82 -63 97
-144 17 -95 24 -367 11 -518 -15 -193 -44 -253 -129 -264 -49 -7 -96 17 -118
59 -30 59 -43 175 -44 395 0 325 21 426 100 465 41 21 35 21 83 7z"/>
<path d="M7170 2684 l0 -536 273 4 c245 4 279 7 339 27 191 62 285 208 295
461 14 330 -108 532 -345 571 -31 5 -171 9 -309 9 l-253 0 0 -536z m447 441
c32 -7 82 -53 97 -89 28 -69 40 -172 39 -356 -1 -345 -47 -439 -215 -440 l-58
0 0 448 0 448 58 -3 c31 -2 67 -6 79 -8z"/>
<path d="M9742 2688 l3 -533 153 -3 152 -3 0 219 0 219 128 6 c151 6 226 25
301 75 42 28 62 51 84 92 25 50 28 66 28 150 0 80 -4 101 -26 147 -31 63 -94
115 -169 140 -42 14 -103 18 -354 21 l-302 3 2 -533z m468 414 c56 -31 75 -80
75 -197 0 -83 -4 -106 -21 -135 -33 -57 -77 -80 -150 -80 l-64 0 0 215 0 215
63 0 c41 0 74 -6 97 -18z"/>
<path d="M10700 2685 l0 -535 155 0 155 0 0 535 0 535 -155 0 -155 0 0 -535z"/>
<path d="M11391 3153 c-82 -270 -291 -983 -291 -993 0 -7 19 -10 58 -8 l57 3
18 58 c9 31 25 83 35 115 l17 57 159 0 159 0 13 -40 c7 -22 22 -75 35 -117
l22 -78 154 0 c142 0 154 1 149 18 -15 53 -243 872 -265 955 l-26 97 -137 0
-136 0 -21 -67z m126 -430 l59 -228 -124 -3 c-69 -1 -127 0 -130 3 -7 6 120
455 129 455 3 0 33 -102 66 -227z"/>
<path d="M12050 2863 c0 -197 5 -389 10 -428 19 -131 76 -211 190 -264 52 -24
64 -26 205 -26 133 0 157 3 211 23 68 26 133 82 163 140 35 69 41 144 41 534
l0 378 -49 0 -50 0 -3 -402 c-3 -388 -4 -405 -25 -450 -37 -81 -95 -116 -193
-117 -83 -1 -136 27 -163 86 -21 47 -22 60 -25 466 l-4 417 -154 0 -154 0 0
-357z"/>
<path d="M7229 1964 c-5 -7 -8 -146 -7 -335 l3 -324 52 -3 c64 -4 66 2 62 136
l-4 95 53 12 c98 23 122 65 122 217 0 113 -14 157 -60 189 -30 21 -206 31
-221 13z m159 -116 c14 -14 16 -156 3 -176 -4 -8 -19 -12 -32 -10 -23 3 -24 6
-24 93 0 50 1 93 3 98 5 11 37 8 50 -5z"/>
<path d="M7560 1966 c-12 -12 -14 -635 -1 -654 5 -9 25 -12 57 -10 l49 3 3
132 3 131 27 -7 c30 -8 46 -54 36 -105 -3 -15 -3 -57 1 -92 l7 -64 53 0 c29 0
55 4 57 10 2 5 1 66 -2 135 -5 108 -9 128 -28 155 l-23 30 23 31 c20 27 23 42
23 128 0 105 -11 135 -60 167 -29 19 -208 27 -225 10z m168 -184 c3 -78 -6
-102 -39 -102 -17 0 -19 9 -19 91 l0 90 28 -3 c26 -3 27 -5 30 -76z"/>
<path d="M7917 1973 c-4 -3 -7 -156 -7 -340 l0 -333 129 0 c141 0 141 0 141
64 0 47 -15 56 -92 56 l-68 0 0 80 0 79 58 3 57 3 3 58 3 57 -61 0 -60 0 0 80
0 80 74 0 c58 0 75 3 80 16 10 26 7 79 -6 92 -13 13 -239 18 -251 5z"/>
<path d="M8237 1973 c-4 -3 -7 -156 -7 -340 l0 -333 55 0 55 0 0 135 0 134 58
3 57 3 3 49 c4 59 -6 67 -68 64 l-45 -2 0 84 0 85 73 3 72 3 0 53 c0 40 -4 55
-16 60 -21 8 -229 8 -237 -1z"/>
<path d="M8598 1973 l-58 -4 0 -335 0 -335 133 3 132 3 3 43 c5 62 -8 72 -89
72 l-69 0 0 80 0 79 58 3 57 3 3 58 3 57 -61 0 -60 0 0 80 0 79 78 3 77 3 3
44 c2 24 0 47 -5 51 -11 10 -133 18 -205 13z"/>
<path d="M9060 1973 c-48 -6 -54 -14 -46 -67 l7 -46 44 0 45 0 2 -277 3 -278
52 -3 53 -3 2 278 3 278 45 5 45 5 3 43 c5 65 -3 70 -121 69 -56 0 -118 -2
-137 -4z"/>
<path d="M9552 1972 c-9 -3 -12 -66 -12 -266 0 -277 -4 -302 -46 -294 -18 3
-19 16 -24 278 l-5 275 -58 3 -58 3 3 -288 c3 -253 5 -292 21 -320 51 -94 192
-96 249 -4 22 35 23 45 26 315 3 198 0 282 -8 290 -11 11 -64 16 -88 8z"/>
<path d="M9728 1970 l-23 -6 -3 -309 c-1 -171 0 -320 3 -333 5 -21 10 -23 58
-20 l52 3 5 130 c5 123 6 130 25 127 11 -2 24 -8 29 -13 6 -5 12 -63 14 -129
l4 -120 54 0 c29 0 54 3 56 8 2 4 1 64 -2 134 -4 109 -8 130 -27 156 l-21 29
20 32 c25 40 36 156 19 217 -19 70 -48 88 -151 94 -49 3 -100 3 -112 0z m150
-194 c3 -82 -3 -96 -40 -96 -16 0 -18 11 -18 91 l0 90 28 -3 c27 -3 27 -4 30
-82z"/>
<path d="M10134 1972 c-6 -4 -22 -92 -37 -196 -14 -110 -30 -192 -37 -196 -8
-5 -9 -9 -2 -11 8 -3 5 -44 -7 -129 -10 -69 -17 -128 -14 -132 2 -5 26 -8 52
-8 l49 0 8 58 9 57 42 3 c46 3 44 7 58 -80 l6 -38 54 0 c47 0 55 3 55 18 0 28
-89 642 -94 651 -6 9 -128 13 -142 3z m80 -329 c4 -37 9 -78 13 -90 5 -20 1
-23 -27 -23 -32 0 -32 0 -26 43 3 23 8 66 12 94 4 29 10 51 14 48 4 -2 10 -35
14 -72z"/>
<path d="M10630 1970 l-65 -5 0 -330 0 -330 47 -3 c57 -4 58 -2 54 141 -1 59
1 104 5 100 4 -5 13 -46 19 -93 21 -163 15 -150 75 -150 l52 0 17 122 c9 67
18 124 21 126 3 3 5 -52 5 -122 l0 -127 53 3 52 3 0 330 0 330 -72 3 -72 3 -6
-33 c-3 -18 -14 -98 -24 -176 -18 -130 -30 -186 -31 -136 -1 46 -49 337 -56
342 -5 4 -38 5 -74 2z"/>
<path d="M11243 1972 l-33 -3 0 -87 c-2 -410 -4 -467 -23 -470 -45 -9 -47 5
-47 289 l0 269 -55 0 -55 0 0 -280 c0 -215 3 -288 14 -313 43 -102 183 -116
250 -24 20 27 21 43 24 321 l3 293 -23 4 c-13 2 -38 3 -55 1z"/>
<path d="M11390 1965 c-7 -8 -9 -126 -8 -336 l3 -324 50 0 50 0 5 175 c3 96 7
171 8 167 1 -5 16 -68 32 -140 17 -73 35 -149 41 -169 l10 -38 54 0 55 0 0
335 0 335 -50 0 -49 0 -3 -137 -3 -138 -33 138 -34 137 -36 1 c-21 1 -47 3
-59 4 -13 1 -27 -3 -33 -10z"/>
<path d="M11993 1959 c-62 -39 -67 -67 -65 -325 1 -127 6 -242 11 -255 16 -43
60 -78 106 -85 111 -16 174 52 174 191 1 78 -6 87 -60 83 l-44 -3 -3 -55 c-4
-90 -9 -102 -40 -98 l-27 3 -3 217 c-2 201 -1 218 16 227 31 16 46 -4 52 -66
l5 -58 50 0 50 0 3 57 c4 74 -23 139 -70 168 -43 26 -113 26 -155 -1z"/>
<path d="M12281 1966 c-8 -9 -10 -114 -9 -337 l3 -324 51 -3 c46 -3 52 -1 58
20 10 39 7 636 -4 643 -21 13 -89 14 -99 1z"/>
<path d="M12851 1970 c-6 -4 -88 -567 -94 -645 -2 -17 5 -20 49 -23 l52 -3 8
58 9 58 42 3 c46 3 44 7 58 -80 l6 -38 54 0 c39 0 55 4 55 13 0 30 -90 650
-95 655 -7 7 -134 9 -144 2z m83 -332 c4 -40 9 -81 12 -90 4 -15 -1 -18 -26
-18 -32 0 -32 0 -26 43 3 23 8 66 12 94 4 29 10 51 14 48 4 -2 10 -37 14 -77z"/>
<path d="M13144 1965 c-12 -8 -14 -68 -12 -335 l3 -325 128 -3 128 -3 -3 58
-3 58 -67 3 -68 3 0 269 c0 204 -3 271 -12 277 -18 11 -78 10 -94 -2z"/>
<path d="M8862 1638 l3 -333 53 -3 52 -3 0 335 0 336 -55 0 -55 0 2 -332z"/>
<path d="M11760 1634 l0 -335 53 3 52 3 3 333 2 332 -55 0 -55 0 0 -336z"/>
<path d="M12455 1957 c-3 -7 -4 -156 -3 -332 l3 -320 55 0 55 0 3 116 3 117
44 6 c50 8 89 35 110 76 20 39 21 227 1 274 -26 62 -56 76 -168 76 -70 0 -100
-4 -103 -13z m164 -111 c8 -9 11 -45 9 -98 -3 -82 -3 -83 -30 -86 l-28 -3 0
100 c0 92 2 101 19 101 10 0 24 -6 30 -14z"/>
<path d="M7170 1810 c0 -5 7 -7 15 -4 8 4 15 8 15 10 0 2 -7 4 -15 4 -8 0 -15
-4 -15 -10z"/>
<path d="M10240 1177 c-20 -7 -44 -26 -57 -46 -22 -32 -23 -43 -23 -218 0
-197 6 -225 52 -257 28 -20 90 -21 127 -1 48 25 56 61 56 265 0 195 -4 217
-48 244 -34 21 -69 25 -107 13z m58 -265 l2 -173 -22 3 c-23 3 -23 6 -26 153
-3 169 1 198 26 193 15 -3 17 -22 20 -176z"/>
<path d="M13108 1183 c-35 -5 -76 -48 -83 -87 -4 -17 -5 -114 -3 -214 l3 -184
33 -29 c53 -48 141 -37 175 21 23 38 25 395 3 438 -21 41 -73 63 -128 55z m50
-267 c2 -127 -1 -171 -10 -177 -31 -19 -38 12 -38 166 0 165 4 188 29 183 14
-3 16 -26 19 -172z"/>
<path d="M8256 1164 c-19 -48 1 -84 46 -84 l28 0 2 -217 3 -218 40 0 40 0 3
218 2 217 29 0 c37 0 53 20 49 62 l-3 33 -116 3 c-100 2 -118 0 -123 -14z"/>
<path d="M8527 1173 c-4 -3 -7 -122 -7 -264 0 -278 -2 -269 54 -269 39 0 46
18 46 118 0 84 2 93 18 90 14 -3 18 -18 22 -95 3 -51 10 -97 16 -103 6 -6 27
-10 45 -8 l34 3 0 105 c0 83 -4 112 -17 132 -15 23 -15 28 -2 47 21 30 29 117
15 169 -17 61 -55 82 -147 82 -39 0 -74 -3 -77 -7z m131 -155 c-2 -50 -6 -63
-20 -66 -16 -3 -18 5 -18 62 0 60 2 66 20 66 19 0 21 -5 18 -62z"/>
<path d="M8850 1176 c0 -2 -16 -118 -35 -257 -20 -138 -34 -258 -31 -266 4
-10 18 -13 43 -11 32 3 38 7 41 28 7 62 11 70 42 70 31 0 35 -8 42 -70 3 -22
9 -25 46 -28 28 -2 44 1 46 10 3 7 -12 128 -32 268 l-37 255 -62 3 c-35 2 -63
1 -63 -2z m74 -293 c6 -50 5 -53 -15 -53 -19 0 -21 4 -15 31 3 17 6 45 6 62 0
47 17 19 24 -40z"/>
<path d="M9085 1167 c-3 -7 -4 -127 -3 -267 l3 -255 67 -3 c130 -6 173 40 166
173 -2 53 -8 79 -22 94 -17 18 -17 21 -2 43 18 25 22 131 6 172 -5 14 -23 32
-39 41 -38 19 -169 21 -176 2z m133 -130 c3 -40 -11 -67 -34 -67 -10 0 -14 15
-14 56 0 52 1 55 23 52 18 -2 23 -10 25 -41z m6 -189 c16 -62 3 -108 -30 -108
-23 0 -24 3 -24 65 0 62 1 65 24 65 16 0 26 -7 30 -22z"/>
<path d="M9410 1173 c0 -4 -16 -121 -36 -261 -21 -157 -32 -258 -26 -264 5 -5
25 -8 43 -6 28 2 35 8 37 28 7 65 11 71 45 68 30 -3 32 -6 37 -48 5 -44 6 -45
44 -48 21 -2 42 0 47 5 5 5 -8 127 -28 271 l-36 262 -64 0 c-35 0 -63 -3 -63
-7z m70 -245 c0 -13 3 -40 6 -60 6 -35 5 -38 -16 -38 -20 0 -22 4 -16 31 3 17
6 44 6 60 0 16 5 29 10 29 6 0 10 -10 10 -22z"/>
<path d="M9640 1171 c0 -5 -1 -121 -2 -258 -1 -136 1 -254 5 -260 6 -9 38 -13
102 -13 91 0 95 1 101 24 3 13 4 35 2 47 -3 22 -9 24 -60 27 l-58 3 -2 217 -3
217 -42 3 c-24 2 -43 -1 -43 -7z"/>
<path d="M9875 1168 c-3 -7 -4 -128 -3 -268 l3 -255 40 0 40 0 3 108 3 107 29
0 30 0 0 -104 c0 -111 2 -116 54 -116 44 0 46 10 46 269 0 136 -4 252 -9 259
-5 8 -23 12 -47 10 l-39 -3 -3 -107 -3 -108 -29 0 -29 0 -3 108 -3 107 -38 3
c-24 2 -39 -1 -42 -10z"/>
<path d="M11717 1173 c-4 -3 -7 -119 -7 -258 0 -268 1 -275 50 -275 43 0 50
16 50 121 l0 98 43 3 c42 3 42 3 42 43 0 40 0 40 -42 43 l-43 3 0 64 0 64 53
3 52 3 3 48 3 47 -99 0 c-54 0 -102 -3 -105 -7z"/>
<path d="M11957 1173 c-4 -3 -7 -102 -7 -220 0 -229 6 -265 51 -297 27 -18 87
-21 122 -5 50 23 55 47 57 284 2 121 2 226 1 233 0 7 -16 12 -41 12 l-40 0 0
-159 c0 -212 -7 -281 -30 -281 -10 0 -20 7 -24 15 -3 8 -5 102 -5 207 0 106
-1 199 -1 206 0 13 -71 18 -83 5z"/>
<path d="M12207 1173 c-12 -11 -8 -68 5 -81 7 -7 25 -12 40 -12 l28 0 2 -217
3 -218 40 0 40 0 3 218 2 217 28 0 c34 0 52 16 52 46 0 52 -4 54 -124 54 -62
0 -116 -3 -119 -7z"/>
<path d="M12477 1174 c-4 -4 -7 -104 -7 -223 0 -186 2 -221 18 -251 39 -79
161 -82 200 -4 8 16 17 358 13 472 -1 7 -16 12 -41 12 l-40 0 0 -204 c0 -112
-3 -211 -6 -220 -7 -19 -43 -22 -46 -3 0 6 -2 104 -2 217 l-1 205 -40 3 c-23
2 -44 0 -48 -4z"/>
<path d="M12746 1165 c-3 -9 -6 -126 -6 -259 0 -255 2 -266 46 -266 51 0 54 6
54 111 0 80 3 99 14 99 24 0 31 -21 36 -115 l5 -90 40 0 40 0 3 98 c2 74 -1
106 -13 130 -14 28 -14 35 1 73 11 30 15 63 12 109 -3 55 -8 70 -31 93 -25 24
-36 27 -111 30 -71 3 -84 1 -90 -13z m132 -147 c-2 -50 -6 -63 -20 -66 -16 -3
-18 5 -18 62 0 60 2 66 20 66 19 0 21 -5 18 -62z"/>
<path d="M13297 1174 c-9 -9 -9 -133 0 -292 l6 -122 37 0 38 0 7 153 c4 83 5
177 3 207 l-3 55 -40 3 c-23 2 -44 0 -48 -4z"/>
<path d="M7247 1163 c-4 -3 -7 -118 -7 -255 0 -241 1 -248 20 -248 19 0 20 7
20 187 0 102 3 184 6 181 3 -3 18 -77 35 -164 40 -218 36 -206 62 -202 20 3
24 17 51 176 16 94 33 172 38 172 4 0 8 -79 8 -175 0 -168 1 -175 20 -175 19
0 20 7 20 255 l0 255 -22 0 c-13 0 -28 -4 -34 -8 -6 -4 -26 -94 -44 -200 -18
-106 -36 -189 -40 -185 -4 4 -21 91 -39 193 -18 101 -35 188 -37 192 -6 10
-48 11 -57 1z"/>
<path d="M7646 1141 c-12 -58 -76 -450 -76 -465 0 -9 8 -16 19 -16 15 0 20 10
26 50 l7 50 59 0 c54 0 59 -2 64 -25 3 -14 7 -36 10 -50 6 -26 45 -37 45 -12
0 25 -79 477 -84 486 -4 5 -20 9 -36 9 -23 -1 -30 -6 -34 -27z m64 -187 c11
-67 20 -126 20 -133 0 -7 -19 -11 -51 -11 -50 0 -51 0 -45 28 3 15 13 72 21
127 17 105 25 136 31 120 2 -5 12 -64 24 -131z"/>
<path d="M7857 1164 c-4 -4 -7 -119 -7 -256 0 -242 0 -248 20 -248 20 0 20 5
18 252 -3 238 -7 275 -31 252z"/>
<path d="M7981 1146 c-30 -32 -44 -97 -31 -145 6 -22 35 -65 75 -109 59 -66
65 -77 65 -117 0 -46 -19 -75 -48 -75 -31 0 -45 18 -51 62 -5 34 -10 43 -26
43 -17 0 -20 -6 -19 -43 2 -80 67 -130 135 -102 51 22 75 107 48 177 -5 15
-32 51 -58 78 -65 68 -81 94 -81 133 0 49 16 72 49 72 34 0 49 -15 57 -58 5
-22 12 -32 25 -32 22 0 25 30 8 78 -21 62 -105 84 -148 38z"/>
<path d="M10680 915 c0 -247 1 -255 20 -255 19 0 20 8 22 188 l3 187 35 -187
c32 -177 35 -188 56 -188 26 0 23 -11 60 205 14 83 28 152 30 154 2 2 4 -77 4
-177 l0 -182 25 0 25 0 -2 253 -3 252 -24 3 c-13 2 -27 0 -32 -5 -4 -4 -23
-91 -40 -193 -18 -102 -35 -188 -39 -193 -3 -4 -21 77 -40 180 -18 104 -35
194 -37 201 -3 6 -18 12 -34 12 l-29 0 0 -255z"/>
<path d="M11085 1158 c-2 -7 -20 -114 -40 -238 -20 -124 -39 -233 -41 -242 -4
-13 0 -18 16 -18 22 0 25 5 35 63 l6 37 59 0 59 0 7 -50 c6 -44 9 -50 30 -50
13 0 24 2 24 4 0 12 -81 483 -85 494 -2 6 -18 12 -35 12 -17 0 -32 -6 -35 -12z
m59 -193 c9 -55 19 -112 22 -127 6 -28 5 -28 -45 -28 -34 0 -51 4 -51 13 0 6
9 64 20 127 11 63 20 119 20 125 0 6 3 6 9 0 5 -6 16 -55 25 -110z"/>
<path d="M11290 916 c0 -250 0 -256 20 -256 20 0 20 5 18 252 -3 232 -4 253
-20 256 -17 3 -18 -14 -18 -252z"/>
<path d="M11420 1146 c-12 -14 -26 -43 -30 -66 -12 -67 6 -113 71 -182 67 -71
85 -111 69 -154 -12 -31 -27 -44 -50 -44 -29 0 -43 19 -49 62 -5 34 -10 43
-26 43 -17 0 -20 -6 -18 -43 4 -78 50 -120 118 -108 48 9 75 53 75 121 0 59
-18 92 -88 162 -54 55 -73 104 -56 152 13 36 65 42 88 9 9 -12 16 -33 16 -45
0 -16 6 -23 20 -23 40 0 16 105 -29 130 -35 18 -86 12 -111 -14z"/>
<path d="M10435 742 c-7 -8 -6 -87 2 -96 4 -3 7 -21 7 -39 1 -52 32 -48 56 8
20 46 27 124 13 126 -5 0 -22 2 -40 3 -18 2 -35 1 -38 -2z"/>
<path d="M13306 738 c-19 -11 -22 -68 -4 -86 16 -16 63 -15 77 2 7 8 11 29 9
47 -3 28 -8 34 -34 40 -18 3 -39 2 -48 -3z"/>
</g>
</svg>
